<svg xmlns="http://www.w3.org/2000/svg" xmlns:xlink="http://www.w3.org/1999/xlink" width="839" zoomAndPan="magnify" viewBox="0 0 629.25 1236.750007" height="1649" preserveAspectRatio="xMidYMid meet" version="1.0"><defs><clipPath id="056a5616d4"><path d="M 0 780 L 160 780 L 160 1052.773438 L 0 1052.773438 Z M 0 780 " clip-rule="nonzero"/></clipPath><clipPath id="7fffcb47af"><path d="M 155 780 L 313.875 780 L 313.875 1052.773438 L 155 1052.773438 Z M 155 780 " clip-rule="nonzero"/></clipPath><clipPath id="c56c93d94f"><path d="M 0 691 L 313.875 691 L 313.875 875 L 0 875 Z M 0 691 " clip-rule="nonzero"/></clipPath><clipPath id="69ee84b3a4"><path d="M 157.054688 872 L 317 872 L 317 1144.054688 L 157.054688 1144.054688 Z M 157.054688 872 " clip-rule="nonzero"/></clipPath><clipPath id="4980fcd4de"><path d="M 312 872 L 470.929688 872 L 470.929688 1144.054688 L 312 1144.054688 Z M 312 872 " clip-rule="nonzero"/></clipPath><clipPath id="0dc32bd74c"><path d="M 157.054688 782.234375 L 470.929688 782.234375 L 470.929688 966 L 157.054688 966 Z M 157.054688 782.234375 " clip-rule="nonzero"/></clipPath><clipPath id="471a013a8f"><path d="M 314.113281 963 L 474 963 L 474 1235.332031 L 314.113281 1235.332031 Z M 314.113281 963 " clip-rule="nonzero"/></clipPath><clipPath id="15989e0fbc"><path d="M 469 963 L 627.988281 963 L 627.988281 1235.332031 L 469 1235.332031 Z M 469 963 " clip-rule="nonzero"/></clipPath><clipPath id="b6ffc298e3"><path d="M 314.113281 873.511719 L 627.988281 873.511719 L 627.988281 1057 L 314.113281 1057 Z M 314.113281 873.511719 " clip-rule="nonzero"/></clipPath><clipPath id="a3a7f209d1"><path d="M 314.113281 782 L 474 782 L 474 1054.289062 L 314.113281 1054.289062 Z M 314.113281 782 " clip-rule="nonzero"/></clipPath><clipPath id="f02c90a990"><path d="M 469 782 L 627.988281 782 L 627.988281 1054.289062 L 469 1054.289062 Z M 469 782 " clip-rule="nonzero"/></clipPath><clipPath id="13f965d88b"><path d="M 314.113281 692.46875 L 627.988281 692.46875 L 627.988281 876 L 314.113281 876 Z M 314.113281 692.46875 " clip-rule="nonzero"/></clipPath><clipPath id="a265ab02b2"><path d="M 0 420 L 160 420 L 160 692.199219 L 0 692.199219 Z M 0 420 " clip-rule="nonzero"/></clipPath><clipPath id="34115a9a46"><path d="M 155 420 L 313.875 420 L 313.875 692.199219 L 155 692.199219 Z M 155 420 " clip-rule="nonzero"/></clipPath><clipPath id="937058388b"><path d="M 0 330.382812 L 313.875 330.382812 L 313.875 514 L 0 514 Z M 0 330.382812 " clip-rule="nonzero"/></clipPath><clipPath id="8c902766f5"><path d="M 157.054688 510 L 317 510 L 317 781.964844 L 157.054688 781.964844 Z M 157.054688 510 " clip-rule="nonzero"/></clipPath><clipPath id="59c2950687"><path d="M 312 510 L 470.929688 510 L 470.929688 781.964844 L 312 781.964844 Z M 312 510 " clip-rule="nonzero"/></clipPath><clipPath id="f1e3590106"><path d="M 157.054688 420.148438 L 470.929688 420.148438 L 470.929688 604 L 157.054688 604 Z M 157.054688 420.148438 " clip-rule="nonzero"/></clipPath><clipPath id="ed1323f55e"><path d="M 314.113281 601 L 474 601 L 474 873.242188 L 314.113281 873.242188 Z M 314.113281 601 " clip-rule="nonzero"/></clipPath><clipPath id="d5769ec7e2"><path d="M 469 601 L 627.988281 601 L 627.988281 873.242188 L 469 873.242188 Z M 469 601 " clip-rule="nonzero"/></clipPath><clipPath id="abb69894ed"><path d="M 314.113281 511.425781 L 627.988281 511.425781 L 627.988281 695 L 314.113281 695 Z M 314.113281 511.425781 " clip-rule="nonzero"/></clipPath><clipPath id="92b9964dc8"><path d="M 0 255 L 160 255 L 160 527.316406 L 0 527.316406 Z M 0 255 " clip-rule="nonzero"/></clipPath><clipPath id="4f9652c540"><path d="M 155 255 L 313.875 255 L 313.875 527.316406 L 155 527.316406 Z M 155 255 " clip-rule="nonzero"/></clipPath><clipPath id="2cd09c5c2d"><path d="M 0 165.496094 L 313.875 165.496094 L 313.875 349 L 0 349 Z M 0 165.496094 " clip-rule="nonzero"/></clipPath><clipPath id="308dd31b3a"><path d="M 0 90 L 160 90 L 160 362.429688 L 0 362.429688 Z M 0 90 " clip-rule="nonzero"/></clipPath><clipPath id="d5aa40bed5"><path d="M 155 90 L 313.875 90 L 313.875 362.429688 L 155 362.429688 Z M 155 90 " clip-rule="nonzero"/></clipPath><clipPath id="251026411f"><path d="M 0 0.613281 L 313.875 0.613281 L 313.875 184 L 0 184 Z M 0 0.613281 " clip-rule="nonzero"/></clipPath><clipPath id="5ac6aa892a"><path d="M 157.054688 180 L 317 180 L 317 452.414062 L 157.054688 452.414062 Z M 157.054688 180 " clip-rule="nonzero"/></clipPath><clipPath id="6c712605ca"><path d="M 312 180 L 470.929688 180 L 470.929688 452.414062 L 312 452.414062 Z M 312 180 " clip-rule="nonzero"/></clipPath><clipPath id="695727e297"><path d="M 157.054688 90.59375 L 470.929688 90.59375 L 470.929688 274 L 157.054688 274 Z M 157.054688 90.59375 " clip-rule="nonzero"/></clipPath><clipPath id="411853abb3"><path d="M 314.113281 270 L 474 270 L 474 542.617188 L 314.113281 542.617188 Z M 314.113281 270 " clip-rule="nonzero"/></clipPath><clipPath id="7cf331fff9"><path d="M 469 270 L 627.988281 270 L 627.988281 542.617188 L 469 542.617188 Z M 469 270 " clip-rule="nonzero"/></clipPath><clipPath id="fd9927f5cd"><path d="M 314.113281 180.800781 L 627.988281 180.800781 L 627.988281 365 L 314.113281 365 Z M 314.113281 180.800781 " clip-rule="nonzero"/></clipPath></defs><path fill="#38b6ff" d="M 157.816406 872.464844 L 157.308594 1051.171875 L 1.789062 961.382812 L 2.296875 782.675781 Z M 157.816406 872.464844 " fill-opacity="1" fill-rule="nonzero"/><g clip-path="url(#056a5616d4)"><path fill="#071838" d="M 157.3125 1052.960938 C 157.003906 1052.960938 156.695312 1052.882812 156.417969 1052.722656 L 0.894531 962.929688 C 0.339844 962.609375 0 962.015625 0 961.375 L 0.507812 782.671875 C 0.507812 782.03125 0.851562 781.441406 1.402344 781.125 C 1.957031 780.804688 2.636719 780.804688 3.191406 781.125 L 158.710938 870.917969 C 159.265625 871.238281 159.609375 871.828125 159.605469 872.46875 L 159.101562 1051.175781 C 159.097656 1051.816406 158.757812 1052.402344 158.203125 1052.722656 C 157.929688 1052.882812 157.617188 1052.960938 157.3125 1052.960938 Z M 3.578125 960.351562 L 155.53125 1048.078125 L 156.023438 873.496094 L 4.074219 785.769531 Z M 3.578125 960.351562 " fill-opacity="1" fill-rule="nonzero"/></g><path fill="#004aad" d="M 157.816406 872.464844 L 312.324219 782.675781 L 311.820312 961.382812 L 157.308594 1051.171875 Z M 157.816406 872.464844 " fill-opacity="1" fill-rule="nonzero"/><g clip-path="url(#7fffcb47af)"><path fill="#071838" d="M 157.3125 1052.960938 C 157.003906 1052.960938 156.695312 1052.882812 156.417969 1052.722656 C 155.863281 1052.398438 155.519531 1051.808594 155.523438 1051.167969 L 156.03125 872.460938 C 156.03125 871.824219 156.371094 871.238281 156.917969 870.921875 L 311.429688 781.128906 C 311.984375 780.808594 312.667969 780.804688 313.222656 781.125 C 313.777344 781.449219 314.117188 782.039062 314.117188 782.679688 L 313.609375 961.386719 C 313.609375 962.023438 313.269531 962.609375 312.71875 962.929688 L 158.210938 1052.71875 C 157.933594 1052.878906 157.621094 1052.960938 157.3125 1052.960938 Z M 159.601562 873.496094 L 159.109375 1048.058594 L 310.035156 960.351562 L 310.527344 785.789062 Z M 159.601562 873.496094 " fill-opacity="1" fill-rule="nonzero"/></g><path fill="#0097b2" d="M 2.296875 782.675781 L 156.804688 692.882812 L 312.324219 782.675781 L 157.816406 872.464844 Z M 2.296875 782.675781 " fill-opacity="1" fill-rule="nonzero"/><g clip-path="url(#c56c93d94f)"><path fill="#071838" d="M 157.816406 874.253906 C 157.507812 874.253906 157.199219 874.175781 156.921875 874.015625 L 1.402344 784.222656 C 0.847656 783.90625 0.507812 783.316406 0.507812 782.675781 C 0.503906 782.039062 0.84375 781.449219 1.394531 781.128906 L 155.90625 691.335938 C 156.460938 691.015625 157.144531 691.015625 157.699219 691.335938 L 313.222656 781.125 C 313.773438 781.445312 314.113281 782.035156 314.117188 782.671875 C 314.117188 783.308594 313.777344 783.898438 313.226562 784.21875 L 158.71875 874.011719 C 158.441406 874.171875 158.128906 874.253906 157.816406 874.253906 Z M 5.863281 782.671875 L 157.8125 870.398438 L 308.757812 782.679688 L 156.808594 694.953125 Z M 5.863281 782.671875 " fill-opacity="1" fill-rule="nonzero"/></g><path fill="#38b6ff" d="M 314.871094 963.742188 L 314.367188 1142.449219 L 158.84375 1052.660156 L 159.351562 873.953125 Z M 314.871094 963.742188 " fill-opacity="1" fill-rule="nonzero"/><g clip-path="url(#69ee84b3a4)"><path fill="#071838" d="M 314.367188 1144.238281 C 314.058594 1144.238281 313.75 1144.160156 313.472656 1144 L 157.949219 1054.207031 C 157.394531 1053.886719 157.054688 1053.296875 157.054688 1052.65625 L 157.5625 873.949219 C 157.5625 873.308594 157.90625 872.722656 158.460938 872.402344 C 159.011719 872.085938 159.695312 872.085938 160.246094 872.402344 L 315.769531 962.195312 C 316.324219 962.515625 316.664062 963.109375 316.664062 963.75 L 316.15625 1142.457031 C 316.15625 1143.09375 315.8125 1143.683594 315.257812 1144 C 314.984375 1144.160156 314.675781 1144.238281 314.367188 1144.238281 Z M 160.636719 1051.628906 L 312.585938 1139.355469 L 313.082031 964.777344 L 161.128906 877.046875 Z M 160.636719 1051.628906 " fill-opacity="1" fill-rule="nonzero"/></g><path fill="#004aad" d="M 314.871094 963.742188 L 469.382812 873.953125 L 468.875 1052.660156 L 314.367188 1142.449219 Z M 314.871094 963.742188 " fill-opacity="1" fill-rule="nonzero"/><g clip-path="url(#4980fcd4de)"><path fill="#071838" d="M 314.367188 1144.238281 C 314.058594 1144.238281 313.75 1144.160156 313.472656 1144 C 312.917969 1143.679688 312.578125 1143.085938 312.578125 1142.445312 L 313.085938 963.738281 C 313.085938 963.105469 313.425781 962.515625 313.976562 962.199219 L 468.484375 872.40625 C 469.039062 872.085938 469.722656 872.085938 470.277344 872.40625 C 470.832031 872.726562 471.171875 873.320312 471.171875 873.960938 L 470.664062 1052.664062 C 470.664062 1053.300781 470.324219 1053.886719 469.773438 1054.207031 L 315.265625 1143.996094 C 314.988281 1144.15625 314.675781 1144.238281 314.367188 1144.238281 Z M 316.660156 964.777344 L 316.164062 1139.335938 L 467.089844 1051.628906 L 467.585938 877.066406 L 316.660156 964.773438 Z M 316.660156 964.777344 " fill-opacity="1" fill-rule="nonzero"/></g><path fill="#0097b2" d="M 159.351562 873.953125 L 313.859375 784.164062 L 469.382812 873.953125 L 314.871094 963.742188 Z M 159.351562 873.953125 " fill-opacity="1" fill-rule="nonzero"/><g clip-path="url(#0dc32bd74c)"><path fill="#071838" d="M 314.871094 965.53125 C 314.5625 965.53125 314.253906 965.453125 313.976562 965.292969 L 158.457031 875.503906 C 157.90625 875.183594 157.5625 874.59375 157.5625 873.957031 C 157.5625 873.316406 157.902344 872.726562 158.453125 872.40625 L 312.960938 782.617188 C 313.515625 782.292969 314.199219 782.292969 314.753906 782.613281 L 470.277344 872.402344 C 470.828125 872.722656 471.171875 873.3125 471.171875 873.949219 C 471.171875 874.585938 470.832031 875.179688 470.28125 875.5 L 315.773438 965.289062 C 315.496094 965.449219 315.183594 965.53125 314.875 965.53125 Z M 162.917969 873.949219 L 314.867188 961.675781 L 465.8125 873.957031 L 313.863281 786.230469 Z M 162.917969 873.949219 " fill-opacity="1" fill-rule="nonzero"/></g><path fill="#38b6ff" d="M 471.929688 1055.023438 L 471.421875 1233.730469 L 315.898438 1143.9375 L 316.40625 965.230469 Z M 471.929688 1055.023438 " fill-opacity="1" fill-rule="nonzero"/><g clip-path="url(#471a013a8f)"><path fill="#071838" d="M 471.421875 1235.519531 C 471.113281 1235.519531 470.804688 1235.4375 470.527344 1235.277344 L 315.003906 1145.488281 C 314.453125 1145.167969 314.109375 1144.574219 314.113281 1143.933594 L 314.617188 965.226562 C 314.621094 964.589844 314.960938 964 315.515625 963.679688 C 316.066406 963.363281 316.75 963.363281 317.300781 963.683594 L 472.824219 1053.472656 C 473.378906 1053.792969 473.71875 1054.386719 473.71875 1055.027344 L 473.210938 1233.734375 C 473.210938 1234.371094 472.867188 1234.960938 472.316406 1235.277344 C 472.039062 1235.4375 471.730469 1235.519531 471.421875 1235.519531 Z M 317.691406 1142.90625 L 469.640625 1230.636719 L 470.136719 1056.054688 L 318.1875 968.324219 Z M 317.691406 1142.90625 " fill-opacity="1" fill-rule="nonzero"/></g><path fill="#004aad" d="M 471.929688 1055.023438 L 626.4375 965.230469 L 625.929688 1143.9375 L 471.421875 1233.730469 Z M 471.929688 1055.023438 " fill-opacity="1" fill-rule="nonzero"/><g clip-path="url(#15989e0fbc)"><path fill="#071838" d="M 471.421875 1235.519531 C 471.113281 1235.519531 470.804688 1235.4375 470.527344 1235.277344 C 469.972656 1234.957031 469.632812 1234.363281 469.632812 1233.722656 L 470.140625 1055.019531 C 470.140625 1054.382812 470.480469 1053.796875 471.03125 1053.476562 L 625.539062 963.6875 C 626.09375 963.363281 626.777344 963.363281 627.332031 963.683594 C 627.886719 964.003906 628.230469 964.597656 628.226562 965.238281 L 627.71875 1143.945312 C 627.71875 1144.578125 627.378906 1145.167969 626.832031 1145.484375 L 472.320312 1235.277344 C 472.042969 1235.4375 471.734375 1235.519531 471.421875 1235.519531 Z M 473.714844 1056.054688 L 473.21875 1230.613281 L 624.144531 1142.90625 L 624.640625 968.34375 Z M 473.714844 1056.054688 " fill-opacity="1" fill-rule="nonzero"/></g><path fill="#0097b2" d="M 316.40625 965.230469 L 470.914062 875.441406 L 626.4375 965.230469 L 471.929688 1055.023438 Z M 316.40625 965.230469 " fill-opacity="1" fill-rule="nonzero"/><g clip-path="url(#b6ffc298e3)"><path fill="#071838" d="M 471.929688 1056.8125 C 471.621094 1056.8125 471.3125 1056.730469 471.035156 1056.570312 L 315.511719 966.78125 C 314.960938 966.460938 314.621094 965.871094 314.617188 965.234375 C 314.617188 964.597656 314.957031 964.003906 315.507812 963.683594 L 470.015625 873.894531 C 470.574219 873.570312 471.253906 873.570312 471.808594 873.890625 L 627.332031 963.679688 C 627.886719 964 628.226562 964.589844 628.226562 965.226562 C 628.226562 965.867188 627.886719 966.457031 627.335938 966.777344 L 472.828125 1056.566406 C 472.550781 1056.730469 472.238281 1056.808594 471.929688 1056.808594 Z M 319.976562 965.226562 L 471.925781 1052.957031 L 622.867188 965.234375 L 470.917969 877.507812 Z M 319.976562 965.226562 " fill-opacity="1" fill-rule="nonzero"/></g><path fill="#38b6ff" d="M 471.929688 873.976562 L 471.421875 1052.683594 L 315.898438 962.894531 L 316.40625 784.1875 Z M 471.929688 873.976562 " fill-opacity="1" fill-rule="nonzero"/><g clip-path="url(#a3a7f209d1)"><path fill="#071838" d="M 471.421875 1054.472656 C 471.113281 1054.472656 470.804688 1054.394531 470.527344 1054.234375 L 315.003906 964.441406 C 314.453125 964.121094 314.109375 963.53125 314.113281 962.890625 L 314.617188 784.183594 C 314.621094 783.542969 314.960938 782.957031 315.515625 782.636719 C 316.066406 782.320312 316.75 782.320312 317.300781 782.636719 L 472.824219 872.429688 C 473.378906 872.75 473.71875 873.34375 473.71875 873.984375 L 473.210938 1052.691406 C 473.210938 1053.328125 472.867188 1053.917969 472.316406 1054.234375 C 472.039062 1054.394531 471.730469 1054.472656 471.421875 1054.472656 Z M 317.691406 961.863281 L 469.640625 1049.589844 L 470.136719 875.011719 L 318.1875 787.28125 Z M 317.691406 961.863281 " fill-opacity="1" fill-rule="nonzero"/></g><path fill="#004aad" d="M 471.929688 873.976562 L 626.4375 784.1875 L 625.929688 962.894531 L 471.421875 1052.683594 Z M 471.929688 873.976562 " fill-opacity="1" fill-rule="nonzero"/><g clip-path="url(#f02c90a990)"><path fill="#071838" d="M 471.421875 1054.472656 C 471.113281 1054.472656 470.804688 1054.394531 470.527344 1054.234375 C 469.972656 1053.914062 469.632812 1053.320312 469.632812 1052.679688 L 470.140625 873.972656 C 470.140625 873.339844 470.480469 872.75 471.03125 872.433594 L 625.539062 782.640625 C 626.09375 782.320312 626.777344 782.320312 627.332031 782.640625 C 627.886719 782.960938 628.230469 783.554688 628.226562 784.195312 L 627.71875 962.898438 C 627.71875 963.535156 627.378906 964.121094 626.832031 964.441406 L 472.320312 1054.230469 C 472.042969 1054.394531 471.734375 1054.472656 471.421875 1054.472656 Z M 473.714844 875.011719 L 473.21875 1049.570312 L 624.144531 961.863281 L 624.640625 787.300781 L 473.714844 875.007812 Z M 473.714844 875.011719 " fill-opacity="1" fill-rule="nonzero"/></g><path fill="#0097b2" d="M 316.40625 784.1875 L 470.914062 694.398438 L 626.4375 784.1875 L 471.929688 873.976562 Z M 316.40625 784.1875 " fill-opacity="1" fill-rule="nonzero"/><g clip-path="url(#13f965d88b)"><path fill="#071838" d="M 471.929688 875.765625 C 471.621094 875.765625 471.3125 875.6875 471.035156 875.527344 L 315.511719 785.738281 C 314.960938 785.417969 314.621094 784.828125 314.617188 784.191406 C 314.617188 783.550781 314.957031 782.960938 315.507812 782.640625 L 470.015625 692.851562 C 470.574219 692.527344 471.253906 692.527344 471.808594 692.847656 L 627.332031 782.636719 C 627.886719 782.957031 628.226562 783.546875 628.226562 784.183594 C 628.226562 784.820312 627.886719 785.414062 627.335938 785.734375 L 472.828125 875.523438 C 472.550781 875.683594 472.238281 875.765625 471.929688 875.765625 Z M 319.976562 784.183594 L 471.925781 871.910156 L 622.867188 784.191406 L 470.917969 696.464844 Z M 319.976562 784.183594 " fill-opacity="1" fill-rule="nonzero"/></g><path fill="#38b6ff" d="M 157.816406 511.890625 L 157.308594 690.597656 L 1.789062 600.804688 L 2.296875 422.097656 Z M 157.816406 511.890625 " fill-opacity="1" fill-rule="nonzero"/><g clip-path="url(#a265ab02b2)"><path fill="#071838" d="M 157.3125 692.386719 C 157.003906 692.386719 156.695312 692.304688 156.417969 692.144531 L 0.894531 602.355469 C 0.339844 602.035156 0 601.441406 0 600.800781 L 0.507812 422.09375 C 0.507812 421.457031 0.851562 420.867188 1.402344 420.550781 C 1.957031 420.230469 2.636719 420.230469 3.191406 420.550781 L 158.710938 510.339844 C 159.265625 510.664062 159.609375 511.253906 159.605469 511.894531 L 159.101562 690.601562 C 159.097656 691.238281 158.757812 691.828125 158.203125 692.148438 C 157.929688 692.304688 157.617188 692.386719 157.3125 692.386719 Z M 3.578125 599.773438 L 155.53125 687.503906 L 156.023438 512.921875 L 4.074219 425.191406 Z M 3.578125 599.773438 " fill-opacity="1" fill-rule="nonzero"/></g><path fill="#004aad" d="M 157.816406 511.890625 L 312.324219 422.097656 L 311.820312 600.804688 L 157.308594 690.597656 Z M 157.816406 511.890625 " fill-opacity="1" fill-rule="nonzero"/><g clip-path="url(#34115a9a46)"><path fill="#071838" d="M 157.3125 692.386719 C 157.003906 692.386719 156.695312 692.304688 156.417969 692.144531 C 155.863281 691.824219 155.519531 691.234375 155.523438 690.59375 L 156.03125 511.886719 C 156.03125 511.25 156.371094 510.664062 156.917969 510.34375 L 311.429688 420.554688 C 311.984375 420.230469 312.667969 420.230469 313.222656 420.550781 C 313.777344 420.871094 314.117188 421.464844 314.117188 422.105469 L 313.609375 600.8125 C 313.609375 601.449219 313.269531 602.035156 312.71875 602.351562 L 158.210938 692.144531 C 157.933594 692.304688 157.621094 692.386719 157.3125 692.386719 Z M 159.601562 512.921875 L 159.109375 687.484375 L 310.035156 599.773438 L 310.527344 425.210938 Z M 159.601562 512.921875 " fill-opacity="1" fill-rule="nonzero"/></g><path fill="#0097b2" d="M 2.296875 422.097656 L 156.804688 332.308594 L 312.324219 422.097656 L 157.816406 511.890625 Z M 2.296875 422.097656 " fill-opacity="1" fill-rule="nonzero"/><g clip-path="url(#937058388b)"><path fill="#071838" d="M 157.816406 513.679688 C 157.507812 513.679688 157.199219 513.597656 156.921875 513.441406 L 1.402344 423.648438 C 0.847656 423.328125 0.507812 422.738281 0.507812 422.101562 C 0.503906 421.464844 0.84375 420.875 1.394531 420.554688 L 155.90625 330.761719 C 156.460938 330.441406 157.144531 330.4375 157.699219 330.757812 L 313.222656 420.550781 C 313.773438 420.867188 314.113281 421.457031 314.117188 422.097656 C 314.117188 422.734375 313.777344 423.324219 313.226562 423.644531 L 158.71875 513.4375 C 158.441406 513.597656 158.128906 513.679688 157.816406 513.679688 Z M 5.863281 422.09375 L 157.8125 509.824219 L 308.757812 422.105469 L 156.808594 334.375 Z M 5.863281 422.09375 " fill-opacity="1" fill-rule="nonzero"/></g><path fill="#38b6ff" d="M 314.871094 601.65625 L 314.367188 780.363281 L 158.84375 690.570312 L 159.351562 511.863281 Z M 314.871094 601.65625 " fill-opacity="1" fill-rule="nonzero"/><g clip-path="url(#8c902766f5)"><path fill="#071838" d="M 314.367188 782.152344 C 314.058594 782.152344 313.75 782.070312 313.472656 781.910156 L 157.949219 692.121094 C 157.394531 691.800781 157.054688 691.207031 157.054688 690.566406 L 157.5625 511.859375 C 157.5625 511.222656 157.90625 510.632812 158.460938 510.316406 C 159.011719 509.996094 159.695312 509.996094 160.246094 510.316406 L 315.769531 600.105469 C 316.324219 600.425781 316.664062 601.019531 316.664062 601.660156 L 316.15625 780.367188 C 316.15625 781.003906 315.8125 781.59375 315.257812 781.914062 C 314.984375 782.070312 314.675781 782.152344 314.367188 782.152344 Z M 160.636719 689.539062 L 312.585938 777.269531 L 313.082031 602.6875 L 161.128906 514.957031 Z M 160.636719 689.539062 " fill-opacity="1" fill-rule="nonzero"/></g><path fill="#004aad" d="M 314.871094 601.65625 L 469.382812 511.863281 L 468.875 690.570312 L 314.367188 780.363281 Z M 314.871094 601.65625 " fill-opacity="1" fill-rule="nonzero"/><g clip-path="url(#59c2950687)"><path fill="#071838" d="M 314.367188 782.152344 C 314.058594 782.152344 313.75 782.070312 313.472656 781.910156 C 312.917969 781.589844 312.578125 781 312.578125 780.359375 L 313.085938 601.652344 C 313.085938 601.015625 313.425781 600.429688 313.976562 600.109375 L 468.484375 510.320312 C 469.039062 509.996094 469.722656 509.996094 470.277344 510.316406 C 470.832031 510.636719 471.171875 511.230469 471.171875 511.871094 L 470.664062 690.578125 C 470.664062 691.214844 470.324219 691.800781 469.773438 692.117188 L 315.265625 781.910156 C 314.988281 782.070312 314.675781 782.152344 314.367188 782.152344 Z M 316.660156 602.6875 L 316.164062 777.25 L 467.089844 689.539062 L 467.585938 514.976562 Z M 316.660156 602.6875 " fill-opacity="1" fill-rule="nonzero"/></g><path fill="#0097b2" d="M 159.351562 511.863281 L 313.859375 422.074219 L 469.382812 511.863281 L 314.871094 601.65625 Z M 159.351562 511.863281 " fill-opacity="1" fill-rule="nonzero"/><g clip-path="url(#f1e3590106)"><path fill="#071838" d="M 314.871094 603.445312 C 314.5625 603.445312 314.253906 603.363281 313.976562 603.207031 L 158.457031 513.414062 C 157.90625 513.09375 157.5625 512.503906 157.5625 511.867188 C 157.5625 511.230469 157.902344 510.640625 158.453125 510.320312 L 312.960938 420.527344 C 313.515625 420.207031 314.199219 420.203125 314.753906 420.523438 L 470.277344 510.316406 C 470.828125 510.632812 471.171875 511.222656 471.171875 511.863281 C 471.171875 512.5 470.832031 513.089844 470.28125 513.410156 L 315.773438 603.203125 C 315.496094 603.363281 315.183594 603.445312 314.875 603.445312 Z M 162.917969 511.859375 L 314.867188 599.589844 L 465.8125 511.871094 L 313.863281 424.140625 Z M 162.917969 511.859375 " fill-opacity="1" fill-rule="nonzero"/></g><path fill="#38b6ff" d="M 471.929688 692.933594 L 471.421875 871.640625 L 315.898438 781.851562 L 316.40625 603.144531 Z M 471.929688 692.933594 " fill-opacity="1" fill-rule="nonzero"/><g clip-path="url(#ed1323f55e)"><path fill="#071838" d="M 471.421875 873.429688 C 471.113281 873.429688 470.804688 873.351562 470.527344 873.191406 L 315.003906 783.398438 C 314.453125 783.078125 314.109375 782.484375 314.113281 781.84375 L 314.617188 603.140625 C 314.621094 602.5 314.960938 601.910156 315.515625 601.59375 C 316.066406 601.273438 316.75 601.273438 317.300781 601.59375 L 472.824219 691.386719 C 473.378906 691.707031 473.71875 692.296875 473.71875 692.9375 L 473.210938 871.644531 C 473.210938 872.285156 472.867188 872.871094 472.316406 873.191406 C 472.039062 873.351562 471.730469 873.429688 471.421875 873.429688 Z M 317.691406 780.820312 L 469.640625 868.546875 L 470.136719 693.964844 L 318.1875 606.238281 Z M 317.691406 780.820312 " fill-opacity="1" fill-rule="nonzero"/></g><path fill="#004aad" d="M 471.929688 692.933594 L 626.4375 603.144531 L 625.929688 781.851562 L 471.421875 871.640625 Z M 471.929688 692.933594 " fill-opacity="1" fill-rule="nonzero"/><g clip-path="url(#d5769ec7e2)"><path fill="#071838" d="M 471.421875 873.429688 C 471.113281 873.429688 470.804688 873.351562 470.527344 873.191406 C 469.972656 872.867188 469.632812 872.277344 469.632812 871.636719 L 470.140625 692.929688 C 470.140625 692.292969 470.480469 691.707031 471.03125 691.390625 L 625.539062 601.597656 C 626.09375 601.277344 626.777344 601.273438 627.332031 601.59375 C 627.886719 601.917969 628.230469 602.507812 628.226562 603.148438 L 627.71875 781.855469 C 627.71875 782.492188 627.378906 783.078125 626.832031 783.398438 L 472.320312 873.1875 C 472.042969 873.347656 471.734375 873.429688 471.421875 873.429688 Z M 473.714844 693.964844 L 473.21875 868.527344 L 624.144531 780.820312 L 624.640625 606.257812 Z M 473.714844 693.964844 " fill-opacity="1" fill-rule="nonzero"/></g><path fill="#0097b2" d="M 316.40625 603.144531 L 470.914062 513.351562 L 626.4375 603.144531 L 471.929688 692.933594 Z M 316.40625 603.144531 " fill-opacity="1" fill-rule="nonzero"/><g clip-path="url(#abb69894ed)"><path fill="#071838" d="M 471.929688 694.722656 C 471.621094 694.722656 471.3125 694.644531 471.035156 694.484375 L 315.511719 604.691406 C 314.960938 604.375 314.621094 603.785156 314.617188 603.144531 C 314.617188 602.507812 314.957031 601.917969 315.507812 601.597656 L 470.015625 511.804688 C 470.574219 511.484375 471.253906 511.484375 471.808594 511.804688 L 627.332031 601.59375 C 627.886719 601.914062 628.226562 602.503906 628.226562 603.140625 C 628.226562 603.777344 627.886719 604.367188 627.335938 604.6875 L 472.828125 694.480469 C 472.550781 694.640625 472.238281 694.722656 471.929688 694.722656 Z M 319.976562 603.140625 L 471.925781 690.867188 L 622.867188 603.148438 L 470.917969 515.421875 Z M 319.976562 603.140625 " fill-opacity="1" fill-rule="nonzero"/></g><path fill="#38b6ff" d="M 157.816406 347.003906 L 157.308594 525.710938 L 1.789062 435.921875 L 2.296875 257.214844 Z M 157.816406 347.003906 " fill-opacity="1" fill-rule="nonzero"/><g clip-path="url(#92b9964dc8)"><path fill="#071838" d="M 157.3125 527.5 C 157.003906 527.5 156.695312 527.421875 156.417969 527.261719 L 0.894531 437.46875 C 0.339844 437.148438 0 436.554688 0 435.917969 L 0.507812 257.210938 C 0.507812 256.570312 0.851562 255.984375 1.402344 255.664062 C 1.957031 255.347656 2.636719 255.347656 3.191406 255.664062 L 158.710938 345.457031 C 159.265625 345.777344 159.609375 346.371094 159.605469 347.011719 L 159.101562 525.714844 C 159.097656 526.355469 158.757812 526.945312 158.203125 527.261719 C 157.929688 527.421875 157.617188 527.5 157.3125 527.5 Z M 3.578125 434.890625 L 155.53125 522.617188 L 156.023438 348.035156 L 4.074219 260.308594 Z M 3.578125 434.890625 " fill-opacity="1" fill-rule="nonzero"/></g><path fill="#004aad" d="M 157.816406 347.003906 L 312.324219 257.214844 L 311.820312 435.921875 L 157.308594 525.710938 Z M 157.816406 347.003906 " fill-opacity="1" fill-rule="nonzero"/><g clip-path="url(#4f9652c540)"><path fill="#071838" d="M 157.3125 527.5 C 157.003906 527.5 156.695312 527.421875 156.417969 527.261719 C 155.863281 526.941406 155.519531 526.347656 155.523438 525.707031 L 156.03125 347 C 156.03125 346.363281 156.371094 345.777344 156.917969 345.460938 L 311.429688 255.667969 C 311.984375 255.347656 312.667969 255.347656 313.222656 255.667969 C 313.777344 255.988281 314.117188 256.582031 314.117188 257.21875 L 313.609375 435.925781 C 313.609375 436.5625 313.269531 437.148438 312.71875 437.46875 L 158.210938 527.257812 C 157.933594 527.417969 157.621094 527.5 157.3125 527.5 Z M 159.601562 348.035156 L 159.109375 522.597656 L 310.035156 434.890625 L 310.527344 260.328125 Z M 159.601562 348.035156 " fill-opacity="1" fill-rule="nonzero"/></g><path fill="#0097b2" d="M 2.296875 257.214844 L 156.804688 167.421875 L 312.324219 257.214844 L 157.816406 347.003906 Z M 2.296875 257.214844 " fill-opacity="1" fill-rule="nonzero"/><g clip-path="url(#2cd09c5c2d)"><path fill="#071838" d="M 157.816406 348.792969 C 157.507812 348.792969 157.199219 348.714844 156.921875 348.554688 L 1.402344 258.761719 C 0.847656 258.445312 0.507812 257.855469 0.507812 257.21875 C 0.503906 256.578125 0.84375 255.988281 1.394531 255.667969 L 155.90625 165.878906 C 156.460938 165.554688 157.144531 165.554688 157.699219 165.875 L 313.222656 255.664062 C 313.773438 255.984375 314.113281 256.574219 314.117188 257.210938 C 314.117188 257.847656 313.777344 258.4375 313.226562 258.761719 L 158.71875 348.550781 C 158.441406 348.710938 158.128906 348.792969 157.816406 348.792969 Z M 5.863281 257.210938 L 157.8125 344.9375 L 308.757812 257.21875 L 156.808594 169.492188 Z M 5.863281 257.210938 " fill-opacity="1" fill-rule="nonzero"/></g><path fill="#38b6ff" d="M 157.816406 182.121094 L 157.308594 360.828125 L 1.789062 271.035156 L 2.296875 92.328125 Z M 157.816406 182.121094 " fill-opacity="1" fill-rule="nonzero"/><g clip-path="url(#308dd31b3a)"><path fill="#071838" d="M 157.3125 362.617188 C 157.003906 362.617188 156.695312 362.535156 156.417969 362.375 L 0.894531 272.585938 C 0.339844 272.265625 0 271.671875 0 271.03125 L 0.507812 92.324219 C 0.507812 91.6875 0.851562 91.097656 1.402344 90.777344 C 1.957031 90.460938 2.636719 90.460938 3.191406 90.78125 L 158.710938 180.570312 C 159.265625 180.890625 159.609375 181.484375 159.605469 182.125 L 159.101562 360.832031 C 159.097656 361.46875 158.757812 362.058594 158.203125 362.378906 C 157.929688 362.535156 157.617188 362.617188 157.3125 362.617188 Z M 3.578125 270.003906 L 155.53125 357.734375 L 156.023438 183.152344 L 4.074219 95.421875 Z M 3.578125 270.003906 " fill-opacity="1" fill-rule="nonzero"/></g><path fill="#004aad" d="M 157.816406 182.121094 L 312.324219 92.328125 L 311.820312 271.035156 L 157.308594 360.828125 Z M 157.816406 182.121094 " fill-opacity="1" fill-rule="nonzero"/><g clip-path="url(#d5aa40bed5)"><path fill="#071838" d="M 157.3125 362.617188 C 157.003906 362.617188 156.695312 362.535156 156.417969 362.375 C 155.863281 362.054688 155.519531 361.460938 155.523438 360.820312 L 156.03125 182.117188 C 156.03125 181.480469 156.371094 180.894531 156.917969 180.574219 L 311.429688 90.785156 C 311.984375 90.460938 312.667969 90.460938 313.222656 90.78125 C 313.777344 91.101562 314.117188 91.695312 314.117188 92.335938 L 313.609375 271.042969 C 313.609375 271.675781 313.269531 272.265625 312.71875 272.582031 L 158.210938 362.375 C 157.933594 362.535156 157.621094 362.617188 157.3125 362.617188 Z M 159.601562 183.152344 L 159.109375 357.714844 L 310.035156 270.003906 L 310.527344 95.441406 Z M 159.601562 183.152344 " fill-opacity="1" fill-rule="nonzero"/></g><path fill="#0097b2" d="M 2.296875 92.328125 L 156.804688 2.539062 L 312.324219 92.328125 L 157.816406 182.121094 Z M 2.296875 92.328125 " fill-opacity="1" fill-rule="nonzero"/><g clip-path="url(#251026411f)"><path fill="#071838" d="M 157.816406 183.910156 C 157.507812 183.910156 157.199219 183.828125 156.921875 183.667969 L 1.402344 93.878906 C 0.847656 93.558594 0.507812 92.96875 0.507812 92.332031 C 0.503906 91.695312 0.84375 91.105469 1.394531 90.78125 L 155.90625 0.992188 C 156.460938 0.671875 157.144531 0.667969 157.699219 0.988281 L 313.222656 90.777344 C 313.773438 91.097656 314.113281 91.6875 314.117188 92.324219 C 314.117188 92.964844 313.777344 93.554688 313.226562 93.875 L 158.71875 183.664062 C 158.441406 183.828125 158.128906 183.90625 157.816406 183.90625 Z M 5.863281 92.324219 L 157.8125 180.054688 L 308.757812 92.335938 L 156.808594 4.605469 Z M 5.863281 92.324219 " fill-opacity="1" fill-rule="nonzero"/></g><path fill="#38b6ff" d="M 314.871094 272.101562 L 314.367188 450.808594 L 158.84375 361.019531 L 159.351562 182.3125 Z M 314.871094 272.101562 " fill-opacity="1" fill-rule="nonzero"/><g clip-path="url(#5ac6aa892a)"><path fill="#071838" d="M 314.367188 452.597656 C 314.058594 452.597656 313.75 452.519531 313.472656 452.359375 L 157.949219 362.566406 C 157.394531 362.246094 157.054688 361.65625 157.054688 361.015625 L 157.5625 182.308594 C 157.5625 181.667969 157.90625 181.082031 158.460938 180.761719 C 159.011719 180.445312 159.695312 180.445312 160.246094 180.761719 L 315.769531 270.554688 C 316.324219 270.875 316.664062 271.46875 316.664062 272.109375 L 316.15625 450.816406 C 316.15625 451.453125 315.8125 452.042969 315.257812 452.359375 C 314.984375 452.519531 314.675781 452.597656 314.367188 452.597656 Z M 160.636719 359.988281 L 312.585938 447.714844 L 313.082031 273.136719 L 161.128906 185.40625 Z M 160.636719 359.988281 " fill-opacity="1" fill-rule="nonzero"/></g><path fill="#004aad" d="M 314.871094 272.101562 L 469.382812 182.3125 L 468.875 361.019531 L 314.367188 450.808594 Z M 314.871094 272.101562 " fill-opacity="1" fill-rule="nonzero"/><g clip-path="url(#6c712605ca)"><path fill="#071838" d="M 314.367188 452.597656 C 314.058594 452.597656 313.75 452.519531 313.472656 452.359375 C 312.917969 452.039062 312.578125 451.445312 312.578125 450.804688 L 313.085938 272.097656 C 313.085938 271.464844 313.425781 270.875 313.976562 270.558594 L 468.484375 180.765625 C 469.039062 180.445312 469.722656 180.445312 470.277344 180.765625 C 470.832031 181.085938 471.171875 181.679688 471.171875 182.320312 L 470.664062 361.023438 C 470.664062 361.660156 470.324219 362.246094 469.773438 362.566406 L 315.265625 452.355469 C 314.988281 452.515625 314.675781 452.597656 314.367188 452.597656 Z M 316.660156 273.136719 L 316.164062 447.695312 L 467.089844 359.988281 L 467.585938 185.425781 L 316.660156 273.132812 Z M 316.660156 273.136719 " fill-opacity="1" fill-rule="nonzero"/></g><path fill="#0097b2" d="M 159.351562 182.3125 L 313.859375 92.523438 L 469.382812 182.3125 L 314.871094 272.101562 Z M 159.351562 182.3125 " fill-opacity="1" fill-rule="nonzero"/><g clip-path="url(#695727e297)"><path fill="#071838" d="M 314.871094 273.890625 C 314.5625 273.890625 314.253906 273.8125 313.976562 273.652344 L 158.457031 183.863281 C 157.90625 183.542969 157.5625 182.953125 157.5625 182.316406 C 157.5625 181.675781 157.902344 181.085938 158.453125 180.765625 L 312.960938 90.976562 C 313.515625 90.652344 314.199219 90.652344 314.753906 90.972656 L 470.277344 180.761719 C 470.828125 181.082031 471.171875 181.671875 471.171875 182.308594 C 471.171875 182.945312 470.832031 183.539062 470.28125 183.859375 L 315.773438 273.648438 C 315.496094 273.808594 315.183594 273.890625 314.875 273.890625 Z M 162.917969 182.308594 L 314.867188 270.035156 L 465.8125 182.316406 L 313.863281 94.589844 Z M 162.917969 182.308594 " fill-opacity="1" fill-rule="nonzero"/></g><path fill="#38b6ff" d="M 471.929688 362.308594 L 471.421875 541.015625 L 315.898438 451.222656 L 316.40625 272.519531 Z M 471.929688 362.308594 " fill-opacity="1" fill-rule="nonzero"/><g clip-path="url(#411853abb3)"><path fill="#071838" d="M 471.421875 542.804688 C 471.113281 542.804688 470.804688 542.722656 470.527344 542.5625 L 315.003906 452.773438 C 314.453125 452.453125 314.109375 451.859375 314.113281 451.21875 L 314.617188 272.511719 C 314.621094 271.875 314.960938 271.285156 315.515625 270.96875 C 316.066406 270.648438 316.75 270.648438 317.300781 270.96875 L 472.824219 360.761719 C 473.378906 361.082031 473.71875 361.671875 473.71875 362.3125 L 473.210938 541.019531 C 473.210938 541.65625 472.867188 542.246094 472.316406 542.566406 C 472.039062 542.722656 471.730469 542.804688 471.421875 542.804688 Z M 317.691406 450.191406 L 469.640625 537.921875 L 470.136719 363.339844 L 318.1875 275.613281 Z M 317.691406 450.191406 " fill-opacity="1" fill-rule="nonzero"/></g><path fill="#004aad" d="M 471.929688 362.308594 L 626.4375 272.519531 L 625.929688 451.222656 L 471.421875 541.015625 Z M 471.929688 362.308594 " fill-opacity="1" fill-rule="nonzero"/><g clip-path="url(#7cf331fff9)"><path fill="#071838" d="M 471.421875 542.804688 C 471.113281 542.804688 470.804688 542.722656 470.527344 542.5625 C 469.972656 542.242188 469.632812 541.652344 469.632812 541.011719 L 470.140625 362.304688 C 470.140625 361.667969 470.480469 361.082031 471.03125 360.761719 L 625.539062 270.972656 C 626.09375 270.652344 626.777344 270.648438 627.332031 270.96875 C 627.886719 271.289062 628.230469 271.882812 628.226562 272.523438 L 627.71875 451.230469 C 627.71875 451.867188 627.378906 452.453125 626.832031 452.769531 L 472.320312 542.5625 C 472.042969 542.722656 471.734375 542.804688 471.421875 542.804688 Z M 473.714844 363.339844 L 473.21875 537.902344 L 624.144531 450.191406 L 624.640625 275.628906 Z M 473.714844 363.339844 " fill-opacity="1" fill-rule="nonzero"/></g><path fill="#0097b2" d="M 316.40625 272.519531 L 470.914062 182.726562 L 626.4375 272.519531 L 471.929688 362.308594 Z M 316.40625 272.519531 " fill-opacity="1" fill-rule="nonzero"/><g clip-path="url(#fd9927f5cd)"><path fill="#071838" d="M 471.929688 364.097656 C 471.621094 364.097656 471.3125 364.019531 471.035156 363.859375 L 315.511719 274.066406 C 314.960938 273.746094 314.621094 273.160156 314.617188 272.519531 C 314.617188 271.882812 314.957031 271.292969 315.507812 270.972656 L 470.015625 181.179688 C 470.574219 180.859375 471.253906 180.855469 471.808594 181.179688 L 627.332031 270.96875 C 627.886719 271.289062 628.226562 271.875 628.226562 272.515625 C 628.226562 273.152344 627.886719 273.742188 627.335938 274.0625 L 472.828125 363.855469 C 472.550781 364.015625 472.238281 364.097656 471.929688 364.097656 Z M 319.976562 272.511719 L 471.925781 360.242188 L 622.867188 272.523438 L 470.917969 184.796875 Z M 319.976562 272.511719 " fill-opacity="1" fill-rule="nonzero"/></g></svg>